<?xml version="1.0" encoding="utf-8"?>
<!-- Generator: Adobe Illustrator 17.0.0, SVG Export Plug-In . SVG Version: 6.00 Build 0)  -->
<!DOCTYPE svg PUBLIC "-//W3C//DTD SVG 1.1//EN" "http://www.w3.org/Graphics/SVG/1.1/DTD/svg11.dtd">
<svg version="1.1" id="Calque_1" xmlns="http://www.w3.org/2000/svg" xmlns:xlink="http://www.w3.org/1999/xlink" x="0px" y="0px"
	 width="253.6px" height="32.324px" viewBox="0 0 253.6 32.324" style="enable-background:new 0 0 253.6 32.324;"
	 xml:space="preserve">
<style type="text/css">
	.st0{fill:#FFCC66;}
</style>
<path class="st0" d="M112.272,16.839c0.05-0.413-0.058-0.772-0.394-1.159c-0.358,1.341-0.693,2.597-1.032,3.869
	c-1.667-0.905-2.176-2.392-1.302-4.001c0.714-1.315,1.55-2.562,1.844-4.083c2.499,1.444,3.341,6.923,0.877,8.178
	c0-0.39,0-0.765,0-1.141C112.12,17.946,112.107,17.392,112.272,16.839z"/>
<path class="st0" d="M108.443,20.905c0.489,0.25,0.978,0.499,1.47,0.751c-0.789,0.989-1.579,1.199-2.632,0.625
	c-0.66-0.36-1.283-0.794-1.89-1.241c-0.327-0.241-0.965-0.311-0.889-0.804c0.063-0.409,0.597-0.604,1-0.77
	c0.437-0.18,0.896-0.308,1.345-0.459c0.364-0.225,0.727-0.23,1.089,0.003c0.786,0.372,1.822,0.345,2.196,1.375
	c-0.267,0.315-0.56,0.007-0.841,0.032C108.928,20.451,108.496,20.34,108.443,20.905z"/>
<g>
	<path class="st0" d="M22.821,25.197l-0.036-20.77l-9.179,18.106h-1.728L2.736,4.427v20.77H0V0h3.563l9.215,18.142L21.958,0h3.527
		v25.197H22.821z"/>
	<path class="st0" d="M44.53,22.281c-1.512,2.052-3.923,3.06-6.947,3.06c-3.924,0-6.443-2.52-6.443-5.795
		c0-3.312,2.627-5.399,7.091-5.435h6.227v-1.116c0-2.771-1.728-4.427-5.075-4.427c-2.088,0-4.032,0.792-6.011,2.16l-1.188-2.052
		c2.448-1.62,4.5-2.556,7.739-2.556c4.68,0,7.271,2.484,7.307,6.551l0.036,12.526H44.53V22.281z M44.495,18.646v-2.268h-5.903
		c-3.168,0-4.824,0.972-4.824,3.06s1.692,3.456,4.355,3.456C41.327,22.893,43.774,21.273,44.495,18.646z"/>
	<path class="st0" d="M70.882,13.498v11.699h-2.808V14.254c0-3.348-2.016-5.328-5.363-5.328c-3.744,0.036-6.047,2.484-6.372,6.083
		v10.187h-2.808V6.227h2.808v4.176c1.332-2.88,3.888-4.248,7.343-4.284C68.218,6.119,70.882,8.927,70.882,13.498z"/>
	<path class="st0" d="M93.669,23.217c0,5.543-3.779,9.035-9.539,9.035c-2.988-0.036-5.472-1.008-7.775-2.736l1.296-2.16
		c1.872,1.548,3.852,2.376,6.372,2.412c4.139,0,6.839-2.52,6.839-6.479v-2.88c-1.332,2.52-3.779,3.959-6.983,3.959
		c-5.111,0-8.639-3.779-8.639-9.179c0-5.291,3.492-9.035,8.567-9.071c3.24,0,5.688,1.44,7.055,3.959V6.227h2.808V23.217z
		 M90.862,15.298c0-3.959-2.7-6.731-6.479-6.731c-3.815,0-6.479,2.808-6.515,6.731c0.036,3.888,2.7,6.695,6.515,6.695
		C88.162,21.993,90.862,19.186,90.862,15.298z"/>
	<path class="st0" d="M117.357,15.694c0,5.688-3.996,9.611-9.611,9.611s-9.611-3.923-9.611-9.611c0-5.651,3.996-9.539,9.611-9.539
		S117.357,10.042,117.357,15.694z M100.943,15.73c0,4.175,2.844,7.055,6.803,7.055s6.803-2.88,6.803-7.055
		c0-4.14-2.844-7.019-6.803-7.019S100.943,11.59,100.943,15.73z"/>
	<path class="st0" d="M139.174,25.197L128.951,0h3.096l8.675,21.849L149.433,0h3.024l-10.295,25.197H139.174z"/>
	<path class="st0" d="M171.645,15.694c0,5.688-3.996,9.611-9.611,9.611s-9.611-3.923-9.611-9.611c0-5.651,3.996-9.539,9.611-9.539
		S171.645,10.042,171.645,15.694z M155.231,15.73c0,4.175,2.844,7.055,6.803,7.055s6.803-2.88,6.803-7.055
		c0-4.14-2.844-7.019-6.803-7.019S155.231,11.59,155.231,15.73z"/>
	<path class="st0" d="M182.014,27.896c-1.188,2.916-3.167,4.427-5.688,4.427c-1.583,0-2.843-0.468-3.995-1.404l1.188-2.339
		c0.864,0.612,1.728,0.9,2.664,0.9c1.476,0,2.7-0.9,3.456-2.664l0.792-1.764l-7.847-18.826h2.952l6.299,15.658l6.011-15.658h2.88
		L182.014,27.896z"/>
	<path class="st0" d="M205.342,22.281c-1.512,2.052-3.923,3.06-6.947,3.06c-3.924,0-6.443-2.52-6.443-5.795
		c0-3.312,2.627-5.399,7.091-5.435h6.227v-1.116c0-2.771-1.728-4.427-5.075-4.427c-2.088,0-4.032,0.792-6.011,2.16l-1.188-2.052
		c2.448-1.62,4.5-2.556,7.739-2.556c4.68,0,7.271,2.484,7.307,6.551l0.036,12.526h-2.736V22.281z M205.306,18.646v-2.268h-5.903
		c-3.168,0-4.824,0.972-4.824,3.06s1.692,3.456,4.355,3.456C202.138,22.893,204.586,21.273,205.306,18.646z"/>
	<path class="st0" d="M230.865,23.217c0,5.543-3.779,9.035-9.539,9.035c-2.988-0.036-5.472-1.008-7.775-2.736l1.296-2.16
		c1.872,1.548,3.852,2.376,6.372,2.412c4.139,0,6.839-2.52,6.839-6.479v-2.88c-1.332,2.52-3.779,3.959-6.983,3.959
		c-5.111,0-8.639-3.779-8.639-9.179c0-5.291,3.492-9.035,8.567-9.071c3.24,0,5.688,1.44,7.055,3.959V6.227h2.808V23.217z
		 M228.058,15.298c0-3.959-2.7-6.731-6.479-6.731c-3.815,0-6.479,2.808-6.515,6.731c0.036,3.888,2.7,6.695,6.515,6.695
		C225.358,21.993,228.058,19.186,228.058,15.298z"/>
	<path class="st0" d="M253.581,16.81h-15.478c0.503,3.708,3.204,6.047,6.875,6.047c2.34,0,4.392-0.828,5.867-2.375l1.548,1.656
		c-1.8,2.016-4.463,3.167-7.631,3.167c-5.579,0-9.431-3.923-9.431-9.575s3.888-9.575,9.395-9.575
		C250.845,6.119,253.869,10.367,253.581,16.81z M251.062,14.506c-0.181-3.636-2.628-5.939-6.336-5.939c-3.6,0-6.19,2.34-6.623,5.939
		H251.062z"/>
</g>
</svg>
